<svg width="264" height="48" fill="none" xmlns="http://www.w3.org/2000/svg"><g id="word"><path d="M74.09 30.04V13h-4.14v21H82.1v-3.96h-8.01zM95.379 19v1.77c-1.08-1.35-2.7-2.19-4.89-2.19-3.99 0-7.29 3.45-7.29 7.92s3.3 7.92 7.29 7.92c2.19 0 3.81-.84 4.89-2.19V34h3.87V19h-3.87zm-4.17 11.73c-2.37 0-4.14-1.71-4.14-4.23 0-2.52 1.77-4.23 4.14-4.23 2.4 0 4.17 1.71 4.17 4.23 0 2.52-1.77 4.23-4.17 4.23zM106.628 21.58V19h-3.87v15h3.87v-7.17c0-3.15 2.55-4.05 4.56-3.81V18.7c-1.89 0-3.78.84-4.56 2.88zM124.295 19v1.77c-1.08-1.35-2.7-2.19-4.89-2.19-3.99 0-7.29 3.45-7.29 7.92s3.3 7.92 7.29 7.92c2.19 0 3.81-.84 4.89-2.19V34h3.87V19h-3.87zm-4.17 11.73c-2.37 0-4.14-1.71-4.14-4.23 0-2.52 1.77-4.23 4.14-4.23 2.4 0 4.17 1.71 4.17 4.23 0 2.52-1.77 4.23-4.17 4.23zM141.544 19l-3.66 10.5-3.63-10.5h-4.26l5.7 15h4.41l5.7-15h-4.26zM150.354 28.09h11.31c.09-.51.15-1.02.15-1.59 0-4.41-3.15-7.92-7.59-7.92-4.71 0-7.92 3.45-7.92 7.92s3.18 7.92 8.22 7.92c2.88 0 5.13-1.17 6.54-3.21l-3.12-1.8c-.66.87-1.86 1.5-3.36 1.5-2.04 0-3.69-.84-4.23-2.82zm-.06-3c.45-1.92 1.86-3.03 3.93-3.03 1.62 0 3.24.87 3.72 3.03h-7.65zM164.516 34h3.87V12.1h-3.87V34zM191.908 14.98V13h-11.85v21h2.1v-9.3h9.3v-1.98h-9.3v-7.74h9.75zM202.188 34.36c4.38 0 7.89-3.42 7.89-7.86s-3.51-7.86-7.89-7.86-7.89 3.42-7.89 7.86 3.51 7.86 7.89 7.86zm0-1.92c-3.33 0-5.91-2.61-5.91-5.94 0-3.33 2.58-5.94 5.91-5.94s5.91 2.61 5.91 5.94c0 3.33-2.58 5.94-5.91 5.94zM215.371 21.49V19h-1.98v15h1.98v-8.34c0-3.72 2.34-4.98 4.74-4.98v-1.92c-1.92 0-3.69.63-4.74 2.73zM231.068 20.92V19h-4.32v-4.2l-1.98.6V19h-3.15v1.92h3.15v9.09c0 3.6 2.25 4.59 6.3 3.99v-1.74c-2.91.12-4.32.33-4.32-2.25v-9.09h4.32zM235.358 15.82a1.44 1.44 0 100-2.88 1.44 1.44 0 000 2.88zm-.99 18.18h1.98V19h-1.98v15zM248.049 14.56v-1.92c-4.05-.3-6.3 1.86-6.3 5.76v.6h-2.55v1.92h2.55V34h1.98V20.92h4.32V19h-4.32v-.6c0-2.88 1.41-4.08 4.32-3.84zM261.545 19l-4.86 12.57-5.64-12.57h-2.1l6.72 15.09-.39.93c-.81 1.95-2.16 3.33-4.11 3.12V40c2.7.21 4.92-1.74 6.06-4.62l6.42-16.38h-2.1z"/></g><circle cx="24" cy="24" r="24" fill="#31C48D"/><path fill-rule="evenodd" clip-rule="evenodd" d="M3.568 36.597L6.4 16l5.6-2.546v3.796l6-2.625v-3.898L24 8v40c-8.635 0-16.204-4.56-20.432-11.403zM15 23a2 2 0 012 2v8.313l-4 .75V25a2 2 0 012-2z" fill="#DEF7EC"/><path fill-rule="evenodd" clip-rule="evenodd" d="M44.432 36.597C40.204 43.44 32.635 48 24 48V8l6 2.727v3.898l6 2.625v-3.796L41.6 16l2.832 20.597zM33 23a2 2 0 00-2 2v8.313l4 .75V25a2 2 0 00-2-2z" fill="#014737"/><style>#word{fill:#2e2e2e}@media (prefers-color-scheme:dark){#word{fill:#fff}}</style></svg>