<svg width="281" height="68" fill="none" xmlns="http://www.w3.org/2000/svg"><g id="word"><path d="M92.394 41.97h9.332v3.53H88V24.172h4.394V41.97zM113.166 45.5c-.195-.38-.337-.855-.425-1.42-1.025 1.142-2.358 1.713-3.999 1.713-1.553 0-2.842-.45-3.867-1.348-1.016-.898-1.523-2.03-1.523-3.398 0-1.68.62-2.969 1.86-3.867 1.25-.899 3.052-1.353 5.405-1.363h1.948v-.908c0-.732-.19-1.318-.571-1.758-.371-.44-.962-.659-1.772-.659-.713 0-1.275.171-1.685.513-.4.342-.6.81-.6 1.406h-4.234c0-.918.283-1.767.85-2.549.566-.78 1.367-1.391 2.402-1.83 1.035-.45 2.197-.675 3.486-.675 1.954 0 3.501.494 4.644 1.48 1.152.977 1.728 2.353 1.728 4.13v6.87c.01 1.505.22 2.642.63 3.414v.249h-4.277zm-3.501-2.944c.625 0 1.201-.137 1.729-.41.527-.284.918-.66 1.171-1.128v-2.725h-1.582c-2.119 0-3.247.732-3.383 2.197l-.015.25c0 .527.186.961.557 1.303.371.342.879.513 1.523.513zM128.972 33.62a11.504 11.504 0 00-1.524-.117c-1.601 0-2.651.542-3.149 1.626V45.5h-4.234V29.65h3.999l.118 1.89c.849-1.455 2.026-2.183 3.53-2.183.469 0 .908.064 1.318.19l-.058 4.073zM139.768 45.5c-.196-.38-.337-.855-.425-1.42-1.026 1.142-2.359 1.713-3.999 1.713-1.553 0-2.842-.45-3.867-1.348-1.016-.898-1.524-2.03-1.524-3.398 0-1.68.62-2.969 1.86-3.867 1.25-.899 3.052-1.353 5.406-1.363h1.948v-.908c0-.732-.19-1.318-.571-1.758-.371-.44-.962-.659-1.773-.659-.713 0-1.274.171-1.684.513-.401.342-.601.81-.601 1.406h-4.233c0-.918.283-1.767.849-2.549.567-.78 1.367-1.391 2.403-1.83 1.035-.45 2.197-.675 3.486-.675 1.953 0 3.501.494 4.644 1.48 1.152.977 1.728 2.353 1.728 4.13v6.87c.01 1.505.22 2.642.63 3.414v.249h-4.277zm-3.501-2.944c.625 0 1.201-.137 1.728-.41.527-.284.918-.66 1.172-1.128v-2.725h-1.582c-2.119 0-3.247.732-3.384 2.197l-.014.25c0 .527.185.961.556 1.303.371.342.879.513 1.524.513zM152.365 40.33l2.945-10.68h4.423l-5.346 15.85h-4.043l-5.347-15.85h4.424l2.944 10.68zM168.698 45.793c-2.324 0-4.219-.713-5.683-2.139-1.455-1.426-2.183-3.325-2.183-5.698v-.41c0-1.592.308-3.013.923-4.263.615-1.26 1.484-2.226 2.607-2.9 1.133-.684 2.422-1.026 3.867-1.026 2.168 0 3.873.684 5.113 2.051 1.25 1.367 1.875 3.306 1.875 5.816v1.728h-10.093c.137 1.035.547 1.865 1.23 2.49.694.625 1.568.938 2.623.938 1.63 0 2.905-.59 3.823-1.773l2.08 2.33c-.635.898-1.494 1.601-2.578 2.109-1.084.498-2.285.747-3.604.747zm-.483-13.008c-.84 0-1.524.283-2.051.85-.518.566-.85 1.377-.996 2.431h5.889v-.337c-.02-.937-.274-1.66-.762-2.167-.488-.518-1.182-.777-2.08-.777zM182.102 45.5h-4.248V23h4.248v22.5zM205.656 39.523h-9.682l-2.198 5.977h-1.889l8.071-21.328h1.714l8.071 21.328h-1.875l-2.212-5.977zm-9.126-1.538h8.555l-4.277-11.616-4.278 11.616zM214.445 45.5h-1.757V29.65h1.757V45.5zm-2.065-20.435c0-.332.107-.61.322-.835.215-.234.508-.351.879-.351s.664.117.879.351c.225.225.337.503.337.835 0 .332-.112.61-.337.835-.215.225-.508.337-.879.337s-.664-.112-.879-.337a1.16 1.16 0 01-.322-.835zM226.545 31.145a6.557 6.557 0 00-1.187-.103c-1.093 0-2.021.308-2.783.923-.752.605-1.289 1.49-1.611 2.651V45.5h-1.743V29.65h1.714l.029 2.52c.928-1.875 2.417-2.813 4.468-2.813.488 0 .874.064 1.157.19l-.044 1.598zM231.291 45.5h-1.758V23h1.758v22.5zM235.1 37.34c0-1.523.293-2.895.879-4.115.595-1.221 1.43-2.168 2.504-2.842 1.084-.684 2.31-1.026 3.677-1.026 2.11 0 3.819.743 5.127 2.227 1.309 1.475 1.963 3.433 1.963 5.874v.366c0 1.533-.298 2.915-.894 4.146-.585 1.22-1.416 2.163-2.49 2.827-1.074.664-2.3.996-3.677.996-2.099 0-3.808-.737-5.127-2.212-1.308-1.484-1.962-3.447-1.962-5.889v-.351zm1.757.484c0 1.895.489 3.452 1.465 4.673.987 1.211 2.276 1.816 3.867 1.816 1.582 0 2.862-.605 3.838-1.816.987-1.22 1.48-2.827 1.48-4.82v-.336c0-1.211-.225-2.32-.674-3.325-.449-1.006-1.079-1.783-1.89-2.33-.81-.556-1.738-.834-2.783-.834-1.562 0-2.837.615-3.823 1.845-.986 1.221-1.48 2.822-1.48 4.805v.322zM258.742 44.313c1.221 0 2.241-.341 3.062-1.025.83-.693 1.279-1.587 1.347-2.68h1.685a5.008 5.008 0 01-.908 2.65c-.557.792-1.299 1.412-2.227 1.861a6.64 6.64 0 01-2.959.674c-2.08 0-3.73-.723-4.951-2.168-1.211-1.445-1.816-3.389-1.816-5.83v-.527c0-1.563.273-2.945.82-4.146.547-1.201 1.328-2.129 2.344-2.783 1.025-.654 2.221-.982 3.589-.982 1.738 0 3.168.518 4.292 1.553 1.132 1.035 1.738 2.398 1.816 4.087h-1.685c-.078-1.24-.527-2.241-1.347-3.003-.811-.762-1.836-1.142-3.076-1.142-1.582 0-2.813.57-3.692 1.713-.869 1.143-1.304 2.745-1.304 4.805v.513c0 2.021.435 3.598 1.304 4.731.879 1.133 2.114 1.7 3.706 1.7zM272.116 37.517l-2.007 1.933v6.05h-1.757V23h1.757v14.4l1.656-1.788 6.064-5.962h2.212l-6.724 6.68 7.31 9.17h-2.095l-6.416-7.983z"/></g><circle r="8" transform="matrix(1 0 0 -1 34 34)" fill="#1C5872"/><path d="M23.142 4H32v12h-8.03L16 23.97v20.06L23.97 52H32v12h-8.858a10 10 0 01-7.07-2.929L6.928 51.93A10 10 0 014 44.858V42h4a2 2 0 100-4H4v-8h4a2 2 0 100-4H4v-2.858a10 10 0 012.929-7.07l9.142-9.143A10 10 0 0123.142 4z" fill="url(#paint0_linear)"/><path d="M36 64V52h8.03L52 44.03V23.97L44.03 16H36V4h8.858a10 10 0 017.07 2.929l9.143 9.142A10 10 0 0164 23.142V26h-4a2 2 0 100 4h4v8h-4a2 2 0 100 4h4v2.858a10 10 0 01-2.929 7.07l-9.142 9.143A10 10 0 0144.858 64H36z" fill="url(#paint1_linear)"/><defs><linearGradient id="paint0_linear" x1="34" y1="4" x2="34" y2="64" gradientUnits="userSpaceOnUse"><stop stop-color="#7BE7EE"/><stop offset="1" stop-color="#18CAF1"/></linearGradient><linearGradient id="paint1_linear" x1="34" y1="4" x2="34" y2="64" gradientUnits="userSpaceOnUse"><stop stop-color="#7BE7EE"/><stop offset="1" stop-color="#18CAF1"/></linearGradient></defs><style>#word{fill:#000}@media (prefers-color-scheme:dark){#word{fill:#fff}}</style></svg>