<svg width="304" height="60" fill="none" xmlns="http://www.w3.org/2000/svg"><circle r="8" transform="matrix(1 0 0 -1 30 30)" fill="#1C5872"/><g id="word"><path d="M19.142 0H28v12h-8.03L12 19.97v20.06L19.97 48H28v12h-8.858a10 10 0 01-7.07-2.929L2.928 47.93A10 10 0 010 40.858V38h4a2 2 0 100-4H0v-8h4a2 2 0 100-4H0v-2.858a10 10 0 012.929-7.07l9.142-9.143A10 10 0 0119.142 0z" fill="url(#paint0_linear)"/><path d="M32 60V48h8.03L48 40.03V19.97L40.03 12H32V0h8.858a10 10 0 017.07 2.929l9.143 9.142A10 10 0 0160 19.142V22h-4a2 2 0 100 4h4v8h-4a2 2 0 100 4h4v2.858a10 10 0 01-2.929 7.07l-9.142 9.143A10 10 0 0140.858 60H32z" fill="url(#paint1_linear)"/><path d="M88.299 38.47h9.33V42H83.905V20.672H88.3V38.47zM109.07 42c-.195-.38-.337-.855-.424-1.42-1.026 1.142-2.359 1.713-4 1.713-1.552 0-2.841-.45-3.867-1.348-1.015-.898-1.523-2.03-1.523-3.398 0-1.68.62-2.969 1.86-3.867 1.25-.899 3.052-1.353 5.405-1.363h1.949v-.908c0-.732-.191-1.318-.572-1.758-.371-.44-.961-.659-1.772-.659-.713 0-1.274.171-1.685.513-.4.342-.6.81-.6 1.406h-4.234c0-.918.284-1.767.85-2.549.566-.78 1.367-1.391 2.402-1.83 1.036-.45 2.198-.675 3.487-.675 1.953 0 3.501.494 4.643 1.48 1.153.977 1.729 2.353 1.729 4.13v6.87c.01 1.505.22 2.642.63 3.414V42h-4.278zm-3.501-2.944a3.7 3.7 0 001.729-.41c.527-.284.918-.66 1.172-1.128v-2.725h-1.582c-2.119 0-3.247.732-3.384 2.197l-.015.25c0 .527.186.961.557 1.303.371.342.879.513 1.523.513zM124.876 30.12a11.503 11.503 0 00-1.523-.117c-1.602 0-2.652.542-3.15 1.626V42h-4.233V26.15h3.999l.117 1.89c.85-1.455 2.026-2.183 3.53-2.183.469 0 .908.064 1.319.19l-.059 4.073zM135.672 42c-.195-.38-.337-.855-.425-1.42-1.025 1.142-2.358 1.713-3.999 1.713-1.553 0-2.842-.45-3.867-1.348-1.016-.898-1.524-2.03-1.524-3.398 0-1.68.621-2.969 1.861-3.867 1.25-.899 3.052-1.353 5.405-1.363h1.948v-.908c0-.732-.19-1.318-.571-1.758-.371-.44-.962-.659-1.772-.659-.713 0-1.275.171-1.685.513-.4.342-.601.81-.601 1.406h-4.233c0-.918.283-1.767.85-2.549.566-.78 1.367-1.391 2.402-1.83 1.035-.45 2.197-.675 3.486-.675 1.953 0 3.501.494 4.644 1.48 1.152.977 1.728 2.353 1.728 4.13v6.87c.01 1.505.22 2.642.63 3.414V42h-4.277zm-3.501-2.944c.625 0 1.201-.137 1.728-.41.528-.284.918-.66 1.172-1.128v-2.725h-1.582c-2.119 0-3.247.732-3.384 2.197l-.014.25c0 .527.185.961.556 1.303.372.342.879.513 1.524.513zM148.27 36.83l2.944-10.68h4.424L150.291 42h-4.043l-5.347-15.85h4.424l2.945 10.68zM164.603 42.293c-2.325 0-4.219-.713-5.684-2.139-1.455-1.426-2.183-3.325-2.183-5.698v-.41c0-1.592.308-3.013.923-4.263.615-1.26 1.485-2.226 2.608-2.9 1.132-.684 2.421-1.026 3.867-1.026 2.168 0 3.872.684 5.112 2.051 1.25 1.367 1.875 3.306 1.875 5.816v1.728h-10.093c.137 1.035.547 1.865 1.231 2.49.693.625 1.567.938 2.622.938 1.631 0 2.905-.59 3.823-1.773l2.08 2.33c-.635.898-1.494 1.601-2.578 2.109-1.084.498-2.285.747-3.603.747zm-.484-13.008c-.84 0-1.523.283-2.051.85-.517.566-.849 1.377-.996 2.431h5.889v-.337c-.02-.937-.273-1.66-.762-2.168-.488-.517-1.181-.776-2.08-.776zM178.006 42h-4.248V19.5h4.248V42zM202.117 36.756c0-1.182-.415-2.114-1.245-2.798-.83-.693-2.349-1.348-4.556-1.963-2.207-.625-3.818-1.304-4.834-2.036-1.445-1.035-2.168-2.393-2.168-4.072 0-1.631.669-2.954 2.007-3.97 1.348-1.025 3.067-1.538 5.157-1.538 1.416 0 2.68.273 3.793.82 1.124.547 1.993 1.309 2.608 2.285.615.977.923 2.066.923 3.267h-1.817c0-1.455-.498-2.622-1.494-3.501-.996-.889-2.334-1.333-4.013-1.333-1.631 0-2.93.366-3.897 1.099-.967.722-1.45 1.67-1.45 2.841 0 1.084.434 1.968 1.304 2.652.869.683 2.26 1.289 4.174 1.816 1.914.518 3.365 1.06 4.351 1.626.986.557 1.728 1.226 2.227 2.007.498.781.747 1.704.747 2.769 0 1.68-.674 3.027-2.022 4.043-1.338 1.015-3.105 1.523-5.303 1.523-1.504 0-2.885-.269-4.145-.806-1.25-.537-2.202-1.289-2.857-2.256-.644-.966-.966-2.075-.966-3.325h1.801c0 1.504.562 2.69 1.685 3.56 1.123.869 2.617 1.303 4.482 1.303 1.661 0 2.994-.366 3.999-1.098 1.006-.733 1.509-1.704 1.509-2.915zM217.425 42c-.176-.498-.288-1.235-.337-2.212a6.156 6.156 0 01-2.359 1.86 7.218 7.218 0 01-3.017.645c-1.524 0-2.759-.425-3.706-1.274-.938-.85-1.406-1.924-1.406-3.223 0-1.543.639-2.764 1.919-3.662 1.289-.899 3.081-1.348 5.376-1.348h3.178v-1.802c0-1.132-.351-2.021-1.054-2.666-.694-.654-1.709-.981-3.047-.981-1.221 0-2.232.312-3.033.937-.8.625-1.201 1.377-1.201 2.256l-1.758-.014c0-1.26.586-2.349 1.758-3.267 1.172-.928 2.613-1.392 4.322-1.392 1.767 0 3.159.445 4.174 1.333 1.026.88 1.553 2.11 1.582 3.692v7.5c0 1.533.162 2.68.484 3.442V42h-1.875zm-5.508-1.26c1.172 0 2.217-.283 3.135-.85.927-.566 1.601-1.323 2.021-2.27v-3.486h-3.135c-1.748.02-3.115.342-4.101.967-.986.615-1.48 1.464-1.48 2.548 0 .89.328 1.626.982 2.212.664.586 1.523.88 2.578.88zM225.174 26.15l.058 2.71c.596-.976 1.338-1.718 2.227-2.226a5.744 5.744 0 012.944-.777c1.7 0 2.964.479 3.794 1.436.83.957 1.25 2.393 1.26 4.307V42h-1.743V31.585c-.01-1.416-.313-2.47-.908-3.164-.586-.694-1.529-1.04-2.827-1.04a4.444 4.444 0 00-2.886 1.025c-.83.674-1.446 1.587-1.846 2.74V42h-1.743V26.15h1.67zM245.857 40.813c1.221 0 2.242-.341 3.062-1.025.83-.693 1.279-1.587 1.348-2.68h1.684a5 5 0 01-.908 2.65c-.557.792-1.299 1.412-2.227 1.861a6.64 6.64 0 01-2.959.674c-2.08 0-3.73-.723-4.951-2.168-1.211-1.445-1.816-3.389-1.816-5.83v-.527c0-1.563.273-2.945.82-4.146.547-1.201 1.328-2.129 2.344-2.783 1.025-.654 2.222-.982 3.589-.982 1.738 0 3.169.518 4.292 1.553 1.133 1.035 1.738 2.398 1.816 4.087h-1.684c-.079-1.24-.528-2.241-1.348-3.003-.811-.762-1.836-1.142-3.076-1.142-1.582 0-2.813.57-3.692 1.713-.869 1.143-1.303 2.745-1.303 4.805v.513c0 2.021.434 3.598 1.303 4.731.879 1.133 2.115 1.7 3.706 1.7zM258.191 22.093v4.057h3.282v1.436h-3.282v10.562c0 .878.157 1.533.469 1.962.322.43.855.645 1.597.645.293 0 .766-.049 1.421-.147l.073 1.436c-.459.166-1.084.249-1.875.249-1.201 0-2.075-.347-2.622-1.04-.547-.703-.82-1.733-.82-3.09V27.585h-2.915V26.15h2.915v-4.057h1.757zM275.301 39.993c-1.055 1.533-2.739 2.3-5.054 2.3-1.689 0-2.974-.488-3.852-1.465-.879-.986-1.329-2.441-1.348-4.365V26.15h1.743v10.093c0 3.018 1.221 4.526 3.662 4.526 2.539 0 4.146-1.05 4.819-3.149V26.15h1.758V42h-1.699l-.029-2.007zM283.196 26.15l.059 2.579c.586-.957 1.318-1.675 2.197-2.154.879-.478 1.856-.718 2.93-.718 2.5 0 4.087 1.026 4.761 3.077.566-.987 1.323-1.744 2.27-2.27.947-.538 1.992-.807 3.135-.807 3.398 0 5.132 1.856 5.2 5.567V42h-1.758V31.556c-.01-1.416-.317-2.466-.923-3.15-.595-.683-1.572-1.025-2.929-1.025-1.26.02-2.325.43-3.194 1.23-.869.791-1.352 1.758-1.45 2.9V42h-1.758V31.424c-.009-1.358-.332-2.368-.966-3.032-.625-.674-1.592-1.011-2.901-1.011-1.103 0-2.051.317-2.842.952-.791.625-1.377 1.558-1.757 2.798V42h-1.758V26.15h1.684z"/></g><defs><linearGradient id="paint0_linear" x1="30" y1="0" x2="30" y2="60" gradientUnits="userSpaceOnUse"><stop stop-color="#7BE7EE"/><stop offset="1" stop-color="#18CAF1"/></linearGradient><linearGradient id="paint1_linear" x1="30" y1="0" x2="30" y2="60" gradientUnits="userSpaceOnUse"><stop stop-color="#7BE7EE"/><stop offset="1" stop-color="#18CAF1"/></linearGradient></defs><style>#word{fill:#000}@media (prefers-color-scheme:dark){#word{fill:#fff}}</style></svg>